<svg id="Capa_1" enable-background="new 0 0 512 512" height="512" viewBox="0 0 512 512" width="512" xmlns="http://www.w3.org/2000/svg"><g><path d="m317.281 167.206c2.562 1.829 5.613 2.794 8.719 2.794.845 0 1.693-.071 2.536-.216 3.945-.677 7.457-2.903 9.752-6.182l53.863-76.948c13.573-19.39 9.729-46.16-8.754-60.945l-28.027-22.422c-2.754-2.203-6.068-3.274-9.37-3.273v-.014h-180v.014c-3.302-.001-6.617 1.07-9.37 3.273l-28.027 22.421c-18.482 14.785-22.327 41.556-8.754 60.945l53.863 76.948c2.295 3.279 5.807 5.505 9.752 6.182.843.145 1.691.216 2.536.216 3.105 0 6.157-.965 8.719-2.794l9.649-6.892 6.338 25.355-39.521 248.979c-.817 5.147 1.096 10.349 5.053 13.74l70 60c2.809 2.408 6.285 3.611 9.762 3.611s6.953-1.204 9.762-3.611l70-60c3.957-3.391 5.87-8.593 5.053-13.74l-39.521-248.979 6.338-25.355zm29.832-132.106 17.544 14.035c6.16 4.928 7.442 13.851 2.918 20.314l-45.18 64.542-43.269-30.906zm-91.113 48.687-53.787-53.787h107.574zm-66.396 50.205-45.18-64.542c-4.524-6.463-3.242-15.386 2.918-20.315l17.545-14.035 67.986 67.986zm66.396 343.252-53.871-46.175 36.678-231.069h34.387l36.678 231.069zm18.288-307.244h-36.576l-7.107-28.427 25.395-18.139 25.395 18.139z"/></g></svg>